<?xml version="1.0" encoding="UTF-8"?>
<!DOCTYPE svg PUBLIC "-//W3C//DTD SVG 1.1//EN" "http://www.w3.org/Graphics/SVG/1.1/DTD/svg11.dtd">
<!-- Creator: CorelDRAW 2018 (64-Bit) -->
<svg xmlns="http://www.w3.org/2000/svg" xml:space="preserve" width="250px" height="50px" version="1.1" style="shape-rendering:geometricPrecision; text-rendering:geometricPrecision; image-rendering:optimizeQuality; fill-rule:evenodd; clip-rule:evenodd"
viewBox="0 0 250 50"
 xmlns:xlink="http://www.w3.org/1999/xlink">
 <defs>
  <style type="text/css">
   <![CDATA[
    .str0 {stroke:#008691;stroke-width:0.9;stroke-miterlimit:22.9256}
    .str1 {stroke:#00CC63;stroke-width:0.9;stroke-miterlimit:22.9256}
    .fil3 {fill:none;fill-rule:nonzero}
    .fil0 {fill:#008691}
    .fil1 {fill:#00CC63}
    .fil2 {fill:#008691;fill-rule:nonzero}
    .fil4 {fill:#00CC63;fill-rule:nonzero}
   ]]>
  </style>
 </defs>
 <g id="Слой_x0020_1">
  <metadata id="CorelCorpID_0Corel-Layer"/>
  <g id="_1879711764720">
   <g>
    <path class="fil0" d="M30.18 19.95c0.32,0.68 0.66,1.43 0.84,2.23l-0.67 0c0.28,0.73 0.37,0.74 1.25,0.91 0.81,0.15 1.09,0.24 1.68,0.6l-0.03 3.1c-0.66,0.38 -2.34,0.45 -2.77,1.03l0.54 0c-0.05,0.71 -0.61,2.2 -1.02,2.53 0.5,1.51 1.58,1.5 -0.09,3.04 -1.9,1.75 -1.35,0.64 -2.9,0.38 -0.44,0.66 -2.46,1.71 -3.43,1.93 -0.25,0.84 -0.42,1.01 -1.46,1.02 -1.01,0.01 -1.46,0.09 -2.24,-0.25 -4.97,-0.3 -8.33,-2.79 -10.26,-6.71 -2.05,-4.15 -0.97,-9.51 2.26,-12.75 0.96,-0.96 2.03,-1.69 3.34,-2.32 1.52,-0.73 2.59,-0.98 4.8,-0.99 0.64,-0.28 2.4,-0.24 3.25,-0.11 0.15,0.21 0.32,0.39 0.43,0.71 0.79,0.33 1.22,0.48 1.95,0.92 0.6,0.36 1.29,0.76 1.66,1.31 0.61,-0.14 0.99,-0.72 1.64,-0.46 0.31,0.13 0.95,0.82 1.17,1.06 1.47,1.58 0.75,1.15 0.06,2.82zm-15.66 -13.38c-1.4,0 -1.88,0.24 -3.15,1.01 -3.45,2.09 -1.3,2.08 -1.3,5.08 0,0.91 -1.95,3.42 -3.13,3.42 -2.44,0 -3.97,-1.74 -5.11,1.58 -0.18,0.53 -0.83,2.59 -0.83,3.03 0,1.11 2.65,1.97 3.39,2.85 0.36,0.43 0.48,2.05 0.48,2.65 0.03,3.25 -4.49,2.36 -3.32,5.54 0.37,1.01 1.36,3.67 2.57,3.67 2.3,0 3.25,-1.07 4.57,-0.11 3.58,2.58 1.82,3.56 1.82,6.06 0,1.69 4.12,2.53 4.91,2.53 1.74,0 1.6,-3.09 3.62,-3.51 2.45,-0.52 3.53,-0.33 4.56,1.42 1.74,2.96 2.18,1.96 4.77,0.92 3.72,-1.5 1.32,-2.62 1.32,-5.37 0,-0.97 2.24,-3.27 3.12,-3.27 2.49,0 3.95,1.68 5.1,-1.3 1.78,-4.62 0.57,-3.94 -1.51,-5.27 -0.5,-0.32 -0.83,-0.49 -1.05,-1.03 -0.5,-1.2 -0.61,-3.79 0.87,-4.89 3.04,-2.27 2.72,-1.52 1.37,-4.93 -1.57,-3.93 -2.74,-1.46 -5.38,-1.46 -0.97,0 -2.27,-1.42 -2.85,-2.2 -0.87,-1.2 0.03,-2.72 0.03,-4.34 0,-1.3 -4.27,-2.53 -5.06,-2.53 -0.85,0 -1.59,1.78 -1.9,2.26 -1.09,1.76 -1.15,1.28 -2.81,1.5 -1.67,0.22 -2.24,0.17 -3.1,-0.99 -0.46,-0.61 -1.18,-2.32 -2,-2.32z"/>
    <path class="fil1" d="M25.37 27.81c-0.84,1.33 -2.91,2.41 -5.09,1.69 -1.62,-0.53 -3.22,-2.15 -3.24,-4.2 -0.07,-5.19 6.29,-6.16 8.19,-3.11 1.39,1.06 1.58,4.43 0.14,5.62zm-5.35 -14.11c-0.54,2.33 -0.48,2.51 -2.09,3.12 -1.77,0.65 -2.32,-1.84 -3.67,-0.71 -0.4,0.34 -0.95,0.94 -1.34,1.34 -1.31,1.35 1.14,1.91 0.62,3.58 -0.94,2.98 -1.98,1.24 -3.14,2.22 -0.48,0.4 -0.36,1.52 -0.34,2.35 0.01,1.07 0.26,1.31 1.17,1.5 0.36,0.07 0.79,0.14 1.09,0.25 0.72,0.24 0.65,0.4 1.11,1.58 0.68,1.73 -1.71,2.14 -0.83,3.47 0.45,0.69 1.42,1.52 2.07,1.96 1.42,-0.33 1.63,-1.65 3.34,-0.96 0.65,0.26 1.13,0.34 1.34,1.05 0.27,0.95 0.1,1.14 0.53,2.02 0.78,0.34 1.23,0.26 2.24,0.25 1.04,-0.01 1.21,-0.18 1.46,-1.02 0.33,-1.23 0.03,-1.57 1.21,-2.07 0.92,-0.38 1.57,-0.75 2.22,0.14 1.55,0.26 1,1.37 2.9,-0.38 1.67,-1.54 0.59,-1.53 0.09,-3.04 -0.38,-0.51 -0.4,-0.58 -0.11,-1.28 0.13,-0.32 0.42,-0.99 0.59,-1.25 0.43,-0.58 2.11,-0.65 2.77,-1.03l0.03 -3.1c-0.59,-0.36 -0.87,-0.45 -1.68,-0.6 -0.88,-0.17 -0.97,-0.18 -1.25,-0.91 -0.39,-0.86 -0.82,-1.35 -0.17,-2.23 0.69,-1.67 1.41,-1.24 -0.06,-2.82 -0.22,-0.24 -0.86,-0.93 -1.17,-1.06 -0.65,-0.26 -1.03,0.32 -1.64,0.46 -0.66,0.89 -1.39,0.46 -2.32,0.09 -1.3,-0.52 -0.83,-1.03 -1.29,-2.32 -0.11,-0.32 -0.28,-0.5 -0.43,-0.71 -0.85,-0.13 -2.61,-0.17 -3.25,0.11z"/>
    <path class="fil0" d="M25.37 27.81c1.44,-1.19 1.25,-4.56 -0.14,-5.62l-5.5 -0.02 0 5.65 5.64 -0.01z"/>
   </g>
   <g>
    <polygon class="fil2" points="41.16,16.67 54.4,16.67 54.4,33.33 51.03,33.33 51.03,19.48 44.53,19.48 44.53,33.33 41.16,33.33 "/>
    <path id="1" class="fil2" d="M57.84 33.33l0 -16.66 5.4 0c2.04,0 3.37,0.08 3.99,0.25 0.96,0.25 1.76,0.79 2.4,1.63 0.64,0.84 0.97,1.92 0.97,3.25 0,1.02 -0.19,1.88 -0.56,2.58 -0.37,0.69 -0.84,1.24 -1.41,1.64 -0.57,0.4 -1.15,0.66 -1.74,0.79 -0.8,0.16 -1.96,0.24 -3.48,0.24l-2.19 0 0 6.28 -3.38 0zm3.38 -13.85l0 4.75 1.83 0c1.33,0 2.2,-0.09 2.65,-0.26 0.45,-0.18 0.8,-0.45 1.05,-0.82 0.25,-0.38 0.38,-0.81 0.38,-1.3 0,-0.61 -0.18,-1.11 -0.53,-1.51 -0.36,-0.39 -0.81,-0.64 -1.35,-0.74 -0.4,-0.08 -1.2,-0.12 -2.42,-0.12l-1.61 0z"/>
    <path id="2" class="fil2" d="M72.36 25.1c0,-1.7 0.26,-3.13 0.77,-4.28 0.37,-0.85 0.89,-1.62 1.55,-2.29 0.65,-0.68 1.37,-1.18 2.15,-1.51 1.04,-0.43 2.24,-0.65 3.6,-0.65 2.46,0 4.42,0.76 5.9,2.28 1.47,1.53 2.21,3.65 2.21,6.37 0,2.7 -0.73,4.81 -2.2,6.33 -1.46,1.52 -3.42,2.29 -5.87,2.29 -2.47,0 -4.45,-0.76 -5.91,-2.28 -1.46,-1.51 -2.2,-3.6 -2.2,-6.26zm3.47 -0.11c0,1.89 0.44,3.32 1.31,4.3 0.88,0.97 1.98,1.46 3.33,1.46 1.34,0 2.44,-0.49 3.31,-1.45 0.86,-0.97 1.29,-2.42 1.29,-4.36 0,-1.91 -0.42,-3.34 -1.26,-4.28 -0.84,-0.94 -1.95,-1.41 -3.34,-1.41 -1.39,0 -2.51,0.48 -3.36,1.43 -0.85,0.95 -1.28,2.39 -1.28,4.31z"/>
    <path id="3" class="fil2" d="M101.06 31.38l0 1.95 -3.31 0 0 -1.95c-2.66,-0.1 -4.54,-0.76 -5.64,-1.97 -1.1,-1.22 -1.64,-2.74 -1.64,-4.57 0,-1.92 0.57,-3.46 1.72,-4.63 1.14,-1.16 3,-1.79 5.56,-1.89l0 -1.65 3.31 0 0 1.65c2.65,0.1 4.52,0.75 5.63,1.95 1.1,1.21 1.65,2.74 1.65,4.58 0,1.84 -0.55,3.36 -1.65,4.57 -1.1,1.2 -2.97,1.86 -5.63,1.96zm0 -2.82c0.88,0 1.64,-0.15 2.27,-0.44 0.64,-0.3 1.09,-0.69 1.35,-1.19 0.27,-0.5 0.4,-1.23 0.4,-2.19 0,-2.4 -1.34,-3.6 -4.02,-3.6l0 7.42zm-3.31 0l0 -7.42c-1.42,0 -2.45,0.31 -3.08,0.94 -0.63,0.64 -0.94,1.59 -0.94,2.87 0,2.41 1.34,3.61 4.02,3.61z"/>
    <polygon id="4" class="fil3 str0" points="41.16,16.67 54.4,16.67 54.4,33.33 51.03,33.33 51.03,19.48 44.53,19.48 44.53,33.33 41.16,33.33 "/>
    <path id="5" class="fil3 str0" d="M57.84 33.33l0 -16.66 5.4 0c2.04,0 3.37,0.08 3.99,0.25 0.96,0.25 1.76,0.79 2.4,1.63 0.64,0.84 0.97,1.92 0.97,3.25 0,1.02 -0.19,1.88 -0.56,2.58 -0.37,0.69 -0.84,1.24 -1.41,1.64 -0.57,0.4 -1.15,0.66 -1.74,0.79 -0.8,0.16 -1.96,0.24 -3.48,0.24l-2.19 0 0 6.28 -3.38 0zm3.38 -13.85l0 4.75 1.83 0c1.33,0 2.2,-0.09 2.65,-0.26 0.45,-0.18 0.8,-0.45 1.05,-0.82 0.25,-0.38 0.38,-0.81 0.38,-1.3 0,-0.61 -0.18,-1.11 -0.53,-1.51 -0.36,-0.39 -0.81,-0.64 -1.35,-0.74 -0.4,-0.08 -1.2,-0.12 -2.42,-0.12l-1.61 0z"/>
    <path id="6" class="fil3 str0" d="M72.36 25.1c0,-1.7 0.26,-3.13 0.77,-4.28 0.37,-0.85 0.89,-1.62 1.55,-2.29 0.65,-0.68 1.37,-1.18 2.15,-1.51 1.04,-0.43 2.24,-0.65 3.6,-0.65 2.46,0 4.42,0.76 5.9,2.28 1.47,1.53 2.21,3.65 2.21,6.37 0,2.7 -0.73,4.81 -2.2,6.33 -1.46,1.52 -3.42,2.29 -5.87,2.29 -2.47,0 -4.45,-0.76 -5.91,-2.28 -1.46,-1.51 -2.2,-3.6 -2.2,-6.26zm3.47 -0.11c0,1.89 0.44,3.32 1.31,4.3 0.88,0.97 1.98,1.46 3.33,1.46 1.34,0 2.44,-0.49 3.31,-1.45 0.86,-0.97 1.29,-2.42 1.29,-4.36 0,-1.91 -0.42,-3.34 -1.26,-4.28 -0.84,-0.94 -1.95,-1.41 -3.34,-1.41 -1.39,0 -2.51,0.48 -3.36,1.43 -0.85,0.95 -1.28,2.39 -1.28,4.31z"/>
    <path id="7" class="fil3 str0" d="M101.06 31.38l0 1.95 -3.31 0 0 -1.95c-2.66,-0.1 -4.54,-0.76 -5.64,-1.97 -1.1,-1.22 -1.64,-2.74 -1.64,-4.57 0,-1.92 0.57,-3.46 1.72,-4.63 1.14,-1.16 3,-1.79 5.56,-1.89l0 -1.65 3.31 0 0 1.65c2.65,0.1 4.52,0.75 5.63,1.95 1.1,1.21 1.65,2.74 1.65,4.58 0,1.84 -0.55,3.36 -1.65,4.57 -1.1,1.2 -2.97,1.86 -5.63,1.96zm0 -2.82c0.88,0 1.64,-0.15 2.27,-0.44 0.64,-0.3 1.09,-0.69 1.35,-1.19 0.27,-0.5 0.4,-1.23 0.4,-2.19 0,-2.4 -1.34,-3.6 -4.02,-3.6l0 7.42zm-3.31 0l0 -7.42c-1.42,0 -2.45,0.31 -3.08,0.94 -0.63,0.64 -0.94,1.59 -0.94,2.87 0,2.41 1.34,3.61 4.02,3.61z"/>
    <path class="fil4" d="M116.71 23.6l5.21 0c-0.13,-1.24 -0.55,-2.27 -1.24,-3.09 -0.69,-0.82 -1.63,-1.24 -2.81,-1.24 -0.9,0 -1.65,0.26 -2.26,0.76 -0.62,0.5 -1.05,1.16 -1.3,1.99l-3.33 -0.77c0.35,-1.47 1.1,-2.66 2.26,-3.55 1.16,-0.89 2.67,-1.33 4.53,-1.33 2.42,0 4.31,0.8 5.68,2.42 1.36,1.61 2.04,3.71 2.04,6.3 0,1.76 -0.32,3.28 -0.95,4.55 -0.63,1.26 -1.5,2.25 -2.61,2.95 -1.1,0.7 -2.43,1.05 -3.99,1.05 -3.79,0 -6.12,-1.8 -7,-5.38l3.37 -1.05c0.18,1.2 0.6,2.09 1.29,2.67 0.68,0.58 1.5,0.87 2.45,0.87 0.98,0 1.82,-0.35 2.52,-1.03 0.7,-0.69 1.15,-1.79 1.35,-3.3l-5.21 0 0 -2.82z"/>
    <path id="1" class="fil4" d="M128.24 16.67l3.38 0 0 7.1c0.75,-0.08 1.26,-0.27 1.52,-0.58 0.26,-0.32 0.67,-1.18 1.22,-2.6 0.7,-1.8 1.4,-2.93 2.1,-3.37 0.7,-0.44 1.82,-0.66 3.37,-0.66 0.08,0 0.25,0 0.49,-0.01l0 2.49 -0.47 -0.01c-0.69,0 -1.2,0.09 -1.52,0.26 -0.31,0.17 -0.57,0.43 -0.77,0.78 -0.2,0.35 -0.49,1.06 -0.87,2.15 -0.21,0.58 -0.43,1.06 -0.67,1.45 -0.24,0.38 -0.66,0.75 -1.26,1.09 0.75,0.21 1.36,0.64 1.85,1.28 0.49,0.65 1.03,1.56 1.61,2.73l2.27 4.56 -3.96 0 -2 -4.29c-0.03,-0.06 -0.1,-0.18 -0.19,-0.35 -0.04,-0.06 -0.18,-0.32 -0.42,-0.78 -0.43,-0.83 -0.78,-1.34 -1.05,-1.54 -0.27,-0.21 -0.69,-0.31 -1.25,-0.32l0 7.28 -3.38 0 0 -16.66z"/>
    <path id="2" class="fil4" d="M152.76 27.19l3.26 1c-0.5,1.83 -1.34,3.2 -2.5,4.09 -1.17,0.89 -2.64,1.33 -4.43,1.33 -2.21,0 -4.03,-0.75 -5.46,-2.27 -1.42,-1.51 -2.14,-3.58 -2.14,-6.2 0,-2.78 0.72,-4.93 2.15,-6.47 1.43,-1.54 3.32,-2.3 5.65,-2.3 2.04,0 3.7,0.6 4.97,1.81 0.76,0.71 1.33,1.73 1.71,3.07l-3.33 0.79c-0.2,-0.86 -0.61,-1.54 -1.23,-2.04 -0.63,-0.5 -1.39,-0.75 -2.28,-0.75 -1.24,0 -2.25,0.44 -3.01,1.33 -0.78,0.89 -1.16,2.32 -1.16,4.31 0,2.1 0.38,3.6 1.14,4.49 0.76,0.9 1.74,1.35 2.96,1.35 0.89,0 1.66,-0.29 2.31,-0.86 0.64,-0.57 1.11,-1.46 1.39,-2.68z"/>
    <polygon id="3" class="fil4" points="158.95,16.67 172.2,16.67 172.2,33.33 168.82,33.33 168.82,19.48 162.33,19.48 162.33,33.33 158.95,33.33 "/>
    <polygon id="4" class="fil4" points="175.64,33.33 175.64,16.67 187.97,16.67 187.97,19.48 179.01,19.48 179.01,23.19 187.34,23.19 187.34,26 179.01,26 179.01,30.52 188.3,30.52 188.3,33.33 "/>
    <path id="5" class="fil4" d="M191.16 33.33l0 -16.66 5.4 0c2.04,0 3.37,0.08 3.99,0.25 0.96,0.25 1.76,0.79 2.4,1.63 0.65,0.84 0.97,1.92 0.97,3.25 0,1.02 -0.19,1.88 -0.56,2.58 -0.37,0.69 -0.84,1.24 -1.41,1.64 -0.57,0.4 -1.15,0.66 -1.74,0.79 -0.8,0.16 -1.96,0.24 -3.48,0.24l-2.19 0 0 6.28 -3.38 0zm3.38 -13.85l0 4.75 1.83 0c1.33,0 2.21,-0.09 2.65,-0.26 0.45,-0.18 0.8,-0.45 1.05,-0.82 0.25,-0.38 0.38,-0.81 0.38,-1.3 0,-0.61 -0.18,-1.11 -0.53,-1.51 -0.36,-0.39 -0.8,-0.64 -1.35,-0.74 -0.4,-0.08 -1.2,-0.12 -2.41,-0.12l-1.62 0z"/>
    <polygon id="6" class="fil4" points="210.13,33.33 210.13,19.48 205.2,19.48 205.2,16.67 218.41,16.67 218.41,19.48 213.51,19.48 213.51,33.33 "/>
    <path id="7" class="fil4" d="M218.89 16.67l3.79 0 3.88 8.63 3.32 -8.63 3.51 0 -5.64 12.66c-0.61,1.38 -1.24,2.42 -1.87,3.14 -0.64,0.72 -1.46,1.07 -2.46,1.07 -1,0 -1.77,-0.06 -2.33,-0.19l0 -2.51c0.47,0.03 0.91,0.05 1.29,0.05 0.78,0 1.33,-0.14 1.67,-0.43 0.34,-0.29 0.66,-0.9 0.97,-1.84l-6.13 -11.95z"/>
    <path id="8" class="fil4" d="M245.74 27.19l3.26 1c-0.5,1.83 -1.34,3.2 -2.5,4.09 -1.17,0.89 -2.64,1.33 -4.43,1.33 -2.21,0 -4.03,-0.75 -5.46,-2.27 -1.42,-1.51 -2.14,-3.58 -2.14,-6.2 0,-2.78 0.72,-4.93 2.15,-6.47 1.43,-1.54 3.32,-2.3 5.65,-2.3 2.04,0 3.7,0.6 4.97,1.81 0.76,0.71 1.33,1.73 1.71,3.07l-3.33 0.79c-0.2,-0.86 -0.61,-1.54 -1.23,-2.04 -0.63,-0.5 -1.39,-0.75 -2.28,-0.75 -1.24,0 -2.25,0.44 -3.01,1.33 -0.78,0.89 -1.16,2.32 -1.16,4.31 0,2.1 0.38,3.6 1.14,4.49 0.76,0.9 1.74,1.35 2.96,1.35 0.89,0 1.66,-0.29 2.31,-0.86 0.64,-0.57 1.11,-1.46 1.39,-2.68z"/>
    <path id="9" class="fil3 str1" d="M116.71 23.6l5.21 0c-0.13,-1.24 -0.55,-2.27 -1.24,-3.09 -0.69,-0.82 -1.63,-1.24 -2.81,-1.24 -0.9,0 -1.65,0.26 -2.26,0.76 -0.62,0.5 -1.05,1.16 -1.3,1.99l-3.33 -0.77c0.35,-1.47 1.1,-2.66 2.26,-3.55 1.16,-0.89 2.67,-1.33 4.53,-1.33 2.42,0 4.31,0.8 5.68,2.42 1.36,1.61 2.04,3.71 2.04,6.3 0,1.76 -0.32,3.28 -0.95,4.55 -0.63,1.26 -1.5,2.25 -2.61,2.95 -1.1,0.7 -2.43,1.05 -3.99,1.05 -3.79,0 -6.12,-1.8 -7,-5.38l3.37 -1.05c0.18,1.2 0.6,2.09 1.29,2.67 0.68,0.58 1.5,0.87 2.45,0.87 0.98,0 1.82,-0.35 2.52,-1.03 0.7,-0.69 1.15,-1.79 1.35,-3.3l-5.21 0 0 -2.82z"/>
    <path id="10" class="fil3 str1" d="M128.24 16.67l3.38 0 0 7.1c0.75,-0.08 1.26,-0.27 1.52,-0.58 0.26,-0.32 0.67,-1.18 1.22,-2.6 0.7,-1.8 1.4,-2.93 2.1,-3.37 0.7,-0.44 1.82,-0.66 3.37,-0.66 0.08,0 0.25,0 0.49,-0.01l0 2.49 -0.47 -0.01c-0.69,0 -1.2,0.09 -1.52,0.26 -0.31,0.17 -0.57,0.43 -0.77,0.78 -0.2,0.35 -0.49,1.06 -0.87,2.15 -0.21,0.58 -0.43,1.06 -0.67,1.45 -0.24,0.38 -0.66,0.75 -1.26,1.09 0.75,0.21 1.36,0.64 1.85,1.28 0.49,0.65 1.03,1.56 1.61,2.73l2.27 4.56 -3.96 0 -2 -4.29c-0.03,-0.06 -0.1,-0.18 -0.19,-0.35 -0.04,-0.06 -0.18,-0.32 -0.42,-0.78 -0.43,-0.83 -0.78,-1.34 -1.05,-1.54 -0.27,-0.21 -0.69,-0.31 -1.25,-0.32l0 7.28 -3.38 0 0 -16.66z"/>
    <path id="11" class="fil3 str1" d="M152.76 27.19l3.26 1c-0.5,1.83 -1.34,3.2 -2.5,4.09 -1.17,0.89 -2.64,1.33 -4.43,1.33 -2.21,0 -4.03,-0.75 -5.46,-2.27 -1.42,-1.51 -2.14,-3.58 -2.14,-6.2 0,-2.78 0.72,-4.93 2.15,-6.47 1.43,-1.54 3.32,-2.3 5.65,-2.3 2.04,0 3.7,0.6 4.97,1.81 0.76,0.71 1.33,1.73 1.71,3.07l-3.33 0.79c-0.2,-0.86 -0.61,-1.54 -1.23,-2.04 -0.63,-0.5 -1.39,-0.75 -2.28,-0.75 -1.24,0 -2.25,0.44 -3.01,1.33 -0.78,0.89 -1.16,2.32 -1.16,4.31 0,2.1 0.38,3.6 1.14,4.49 0.76,0.9 1.74,1.35 2.96,1.35 0.89,0 1.66,-0.29 2.31,-0.86 0.64,-0.57 1.11,-1.46 1.39,-2.68z"/>
    <polygon id="12" class="fil3 str1" points="158.95,16.67 172.2,16.67 172.2,33.33 168.82,33.33 168.82,19.48 162.33,19.48 162.33,33.33 158.95,33.33 "/>
    <polygon id="13" class="fil3 str1" points="175.64,33.33 175.64,16.67 187.97,16.67 187.97,19.48 179.01,19.48 179.01,23.19 187.34,23.19 187.34,26 179.01,26 179.01,30.52 188.3,30.52 188.3,33.33 "/>
    <path id="14" class="fil3 str1" d="M191.16 33.33l0 -16.66 5.4 0c2.04,0 3.37,0.08 3.99,0.25 0.96,0.25 1.76,0.79 2.4,1.63 0.65,0.84 0.97,1.92 0.97,3.25 0,1.02 -0.19,1.88 -0.56,2.58 -0.37,0.69 -0.84,1.24 -1.41,1.64 -0.57,0.4 -1.15,0.66 -1.74,0.79 -0.8,0.16 -1.96,0.24 -3.48,0.24l-2.19 0 0 6.28 -3.38 0zm3.38 -13.85l0 4.75 1.83 0c1.33,0 2.21,-0.09 2.65,-0.26 0.45,-0.18 0.8,-0.45 1.05,-0.82 0.25,-0.38 0.38,-0.81 0.38,-1.3 0,-0.61 -0.18,-1.11 -0.53,-1.51 -0.36,-0.39 -0.8,-0.64 -1.35,-0.74 -0.4,-0.08 -1.2,-0.12 -2.41,-0.12l-1.62 0z"/>
    <polygon id="15" class="fil3 str1" points="210.13,33.33 210.13,19.48 205.2,19.48 205.2,16.67 218.41,16.67 218.41,19.48 213.51,19.48 213.51,33.33 "/>
    <path id="16" class="fil3 str1" d="M218.89 16.67l3.79 0 3.88 8.63 3.32 -8.63 3.51 0 -5.64 12.66c-0.61,1.38 -1.24,2.42 -1.87,3.14 -0.64,0.72 -1.46,1.07 -2.46,1.07 -1,0 -1.77,-0.06 -2.33,-0.19l0 -2.51c0.47,0.03 0.91,0.05 1.29,0.05 0.78,0 1.33,-0.14 1.67,-0.43 0.34,-0.29 0.66,-0.9 0.97,-1.84l-6.13 -11.95z"/>
    <path id="17" class="fil3 str1" d="M245.74 27.19l3.26 1c-0.5,1.83 -1.34,3.2 -2.5,4.09 -1.17,0.89 -2.64,1.33 -4.43,1.33 -2.21,0 -4.03,-0.75 -5.46,-2.27 -1.42,-1.51 -2.14,-3.58 -2.14,-6.2 0,-2.78 0.72,-4.93 2.15,-6.47 1.43,-1.54 3.32,-2.3 5.65,-2.3 2.04,0 3.7,0.6 4.97,1.81 0.76,0.71 1.33,1.73 1.71,3.07l-3.33 0.79c-0.2,-0.86 -0.61,-1.54 -1.23,-2.04 -0.63,-0.5 -1.39,-0.75 -2.28,-0.75 -1.24,0 -2.25,0.44 -3.01,1.33 -0.78,0.89 -1.16,2.32 -1.16,4.31 0,2.1 0.38,3.6 1.14,4.49 0.76,0.9 1.74,1.35 2.96,1.35 0.89,0 1.66,-0.29 2.31,-0.86 0.64,-0.57 1.11,-1.46 1.39,-2.68z"/>
   </g>
  </g>
 </g>
</svg>
